<?xml version="1.0" encoding="UTF-8" standalone="no"?>
<!-- Created with Inkscape (http://www.inkscape.org/) -->
<svg
   xmlns:svg="http://www.w3.org/2000/svg"
   xmlns="http://www.w3.org/2000/svg"
   version="1.0"
   width="330"
   height="420"
   id="svg3317">
  <defs
     id="defs3319" />
  <g
     id="layer1">
    <path
       d="M 132.186,165.97923 C 132.186,174.61659 125.184,181.61859 116.5466,181.61859 C 107.90921,181.61859 100.90721,174.61659 100.90721,165.97923 C 100.90721,157.34183 107.90921,150.33984 116.5466,150.33984 C 125.184,150.33984 132.186,157.34183 132.186,165.97923 z "
       style="fill:none;fill-opacity:1;fill-rule:evenodd;stroke:#000000;stroke-width:5;stroke-linecap:butt;stroke-linejoin:miter;stroke-miterlimit:4;stroke-dasharray:none;stroke-dashoffset:0;stroke-opacity:1"
       id="path2234" />
    <path
       d="M 8.7925016,165.97945 L 101.91712,165.97945"
       style="color:#000000;fill:none;fill-opacity:1;fill-rule:evenodd;stroke:#000000;stroke-width:5;stroke-linecap:butt;stroke-linejoin:round;marker:none;marker-start:none;marker-mid:none;marker-end:none;stroke-miterlimit:4;stroke-dasharray:none;stroke-dashoffset:0;stroke-opacity:1;visibility:visible;display:inline;overflow:visible"
       id="path2236" />
    <path
       d="M 226.61296,97.092119 C 226.61296,105.72948 219.61096,112.73148 210.97356,112.73148 C 202.33617,112.73148 195.33417,105.72948 195.33417,97.092119 C 195.33417,88.454719 202.33617,81.452729 210.97356,81.452729 C 219.61096,81.452729 226.61296,88.454719 226.61296,97.092119 z "
       style="fill:none;fill-opacity:1;fill-rule:evenodd;stroke:#000000;stroke-width:5;stroke-linecap:butt;stroke-linejoin:miter;stroke-miterlimit:4;stroke-dasharray:none;stroke-dashoffset:0;stroke-opacity:1"
       id="path2238" />
    <path
       d="M 228.90651,97.092339 L 322.03113,97.092339"
       style="color:#000000;fill:none;fill-opacity:1;fill-rule:evenodd;stroke:#000000;stroke-width:5;stroke-linecap:butt;stroke-linejoin:round;marker:none;marker-start:none;marker-mid:none;marker-end:none;stroke-miterlimit:4;stroke-dasharray:none;stroke-dashoffset:0;stroke-opacity:1;visibility:visible;display:inline;overflow:visible"
       id="path2240" />
    <path
       d="M 130.88624,28.205031 C 130.88624,36.842391 123.88424,43.844392 115.24684,43.844392 C 106.60945,43.844392 99.607452,36.842391 99.607452,28.205031 C 99.607452,19.567631 106.60945,12.565641 115.24684,12.565641 C 123.88424,12.565641 130.88624,19.567631 130.88624,28.205031 z "
       style="fill:none;fill-opacity:1;fill-rule:evenodd;stroke:#000000;stroke-width:5;stroke-linecap:butt;stroke-linejoin:miter;stroke-miterlimit:4;stroke-dasharray:none;stroke-dashoffset:0;stroke-opacity:1"
       id="path3142" />
    <path
       d="M 7.4927416,28.205251 L 100.61736,28.205251"
       style="color:#000000;fill:none;fill-opacity:1;fill-rule:evenodd;stroke:#000000;stroke-width:5;stroke-linecap:butt;stroke-linejoin:round;marker:none;marker-start:none;marker-mid:none;marker-end:none;stroke-miterlimit:4;stroke-dasharray:none;stroke-dashoffset:0;stroke-opacity:1;visibility:visible;display:inline;overflow:visible"
       id="path3144" />
    <path
       d="M 195.14782,90.17964 L 100.04904,43.464447"
       style="color:#000000;fill:none;fill-opacity:1;fill-rule:evenodd;stroke:#000000;stroke-width:5;stroke-linecap:butt;stroke-linejoin:miter;marker:none;marker-start:none;marker-mid:none;marker-end:none;stroke-miterlimit:4;stroke-dasharray:none;stroke-dashoffset:0;stroke-opacity:1;visibility:visible;display:inline;overflow:visible"
       id="path3279" />
    <path
       d="M 132.186,387.5569 C 132.186,396.19426 125.184,403.19626 116.5466,403.19626 C 107.90921,403.19626 100.90721,396.19426 100.90721,387.5569 C 100.90721,378.9195 107.90921,371.91751 116.5466,371.91751 C 125.184,371.91751 132.186,378.9195 132.186,387.5569 z "
       style="fill:none;fill-opacity:1;fill-rule:evenodd;stroke:#000000;stroke-width:5;stroke-linecap:butt;stroke-linejoin:miter;stroke-miterlimit:4;stroke-dasharray:none;stroke-dashoffset:0;stroke-opacity:1"
       id="path3297" />
    <path
       d="M 8.7925016,387.55712 L 101.91712,387.55712"
       style="color:#000000;fill:none;fill-opacity:1;fill-rule:evenodd;stroke:#000000;stroke-width:5;stroke-linecap:butt;stroke-linejoin:round;marker:none;marker-start:none;marker-mid:none;marker-end:none;stroke-miterlimit:4;stroke-dasharray:none;stroke-dashoffset:0;stroke-opacity:1;visibility:visible;display:inline;overflow:visible"
       id="path3299" />
    <path
       d="M 226.61296,318.6698 C 226.61296,327.30716 219.61096,334.30916 210.97356,334.30916 C 202.33617,334.30916 195.33417,327.30716 195.33417,318.6698 C 195.33417,310.0324 202.33617,303.03041 210.97356,303.03041 C 219.61096,303.03041 226.61296,310.0324 226.61296,318.6698 z "
       style="fill:none;fill-opacity:1;fill-rule:evenodd;stroke:#000000;stroke-width:5;stroke-linecap:butt;stroke-linejoin:miter;stroke-miterlimit:4;stroke-dasharray:none;stroke-dashoffset:0;stroke-opacity:1"
       id="path3303" />
    <path
       d="M 228.90651,318.67002 L 322.03113,318.67002"
       style="color:#000000;fill:none;fill-opacity:1;fill-rule:evenodd;stroke:#000000;stroke-width:5;stroke-linecap:butt;stroke-linejoin:round;marker:none;marker-start:none;marker-mid:none;marker-end:none;stroke-miterlimit:4;stroke-dasharray:none;stroke-dashoffset:0;stroke-opacity:1;visibility:visible;display:inline;overflow:visible"
       id="path3305" />
    <path
       d="M 130.88624,249.78273 C 130.88624,258.42009 123.88424,265.42209 115.24684,265.42209 C 106.60945,265.42209 99.607452,258.42009 99.607452,249.78273 C 99.607452,241.14533 106.60945,234.14334 115.24684,234.14334 C 123.88424,234.14334 130.88624,241.14533 130.88624,249.78273 z "
       style="fill:none;fill-opacity:1;fill-rule:evenodd;stroke:#000000;stroke-width:5;stroke-linecap:butt;stroke-linejoin:miter;stroke-miterlimit:4;stroke-dasharray:none;stroke-dashoffset:0;stroke-opacity:1"
       id="path3309" />
    <path
       d="M 7.4927416,249.78295 L 100.61736,249.78295"
       style="color:#000000;fill:none;fill-opacity:1;fill-rule:evenodd;stroke:#000000;stroke-width:5;stroke-linecap:butt;stroke-linejoin:round;marker:none;marker-start:none;marker-mid:none;marker-end:none;stroke-miterlimit:4;stroke-dasharray:none;stroke-dashoffset:0;stroke-opacity:1;visibility:visible;display:inline;overflow:visible"
       id="path3311" />
    <path
       d="M 195.14782,311.75733 L 100.04904,265.04214"
       style="color:#000000;fill:none;fill-opacity:1;fill-rule:evenodd;stroke:#000000;stroke-width:5;stroke-linecap:butt;stroke-linejoin:miter;marker:none;marker-start:none;marker-mid:none;marker-end:none;stroke-miterlimit:4;stroke-dasharray:none;stroke-dashoffset:0;stroke-opacity:1;visibility:visible;display:inline;overflow:visible"
       id="path3313" />
    <path
       d="M 162.51506,406.47478 L 162.51506,13.999304"
       style="opacity:1;color:#000000;fill:none;fill-opacity:1;fill-rule:evenodd;stroke:#000000;stroke-width:5;stroke-linecap:butt;stroke-linejoin:miter;marker:none;marker-start:none;marker-mid:none;marker-end:none;stroke-miterlimit:4;stroke-dasharray:5, 5;stroke-dashoffset:0;stroke-opacity:1;visibility:visible;display:inline;overflow:visible"
       id="path3315" />
  </g>
</svg>
